<svg width="26" height="18" viewBox="0 0 26 18" fill="none" xmlns="http://www.w3.org/2000/svg">
<g clip-path="url(#clip0_150_1062)">
<path d="M25.8583 1.00122C25.5582 0.359994 25.0486 0.0149019 24.3402 0.00674257C23.2601 -0.0062164 22.1791 0.00290352 21.0995 0.00290352H9.43266C8.39435 0.00290352 7.86607 0.400312 7.57888 1.39479C7.57291 1.41117 7.56602 1.42719 7.55823 1.44279V4.32256H9.86345C9.86442 4.19589 9.87485 4.06947 9.89467 3.94435C10.0046 3.3204 10.5252 2.89179 11.1616 2.88363C11.4555 2.87979 11.7494 2.87883 12.0433 2.88363C12.38 2.88758 12.7019 3.02254 12.9406 3.25985C13.1793 3.49716 13.316 3.81813 13.3218 4.15457C13.3218 4.21025 13.3218 4.2664 13.3246 4.32208H14.5517C15.6318 4.32208 16.7128 4.31296 17.7924 4.32544C18.5008 4.3336 19.0104 4.67917 19.3105 5.31992C19.3758 5.45911 19.4066 5.61413 19.4546 5.76196V12.6734H24.164C25.1663 12.6734 25.7248 12.2458 25.9817 11.2815C25.9879 11.2649 25.9955 11.2489 26.0043 11.2335V1.44135C25.9539 1.29736 25.9236 1.13993 25.8583 1.00122ZM20.3969 7.87571C20.1313 7.68853 20.0823 7.33864 20.2802 7.04874C20.6096 6.56638 20.6101 6.11521 20.2802 5.63189C20.0818 5.3396 20.1284 4.99402 20.3916 4.80348C20.6548 4.61293 21.0068 4.67677 21.2234 4.97147C21.5195 5.36851 21.6788 5.85086 21.6772 6.34608C21.6757 6.84129 21.5134 7.32263 21.2147 7.71781C21.0034 8.00386 20.6682 8.0677 20.3969 7.87571ZM22.6286 9.17833C22.3933 9.45191 22.036 9.48839 21.7834 9.27096C21.5394 9.06122 21.525 8.70989 21.7488 8.43583C22.8125 7.13321 22.8125 5.54406 21.7488 4.2424C21.5197 3.96211 21.5399 3.60694 21.7968 3.39479C22.0456 3.18985 22.3981 3.23161 22.6286 3.49894C23.3346 4.31488 23.6823 5.26952 23.6976 6.3432C23.6765 7.41879 23.3293 8.36528 22.6286 9.17833Z" fill="#0077C4" fill-opacity="0.59"/>
<path d="M18.3001 6.32594C17.9999 5.68519 17.4904 5.33962 16.782 5.33146C15.7019 5.3185 14.6209 5.3281 13.5413 5.32762H1.873C0.834688 5.32762 0.306408 5.72503 0.0192163 6.71951C0.0132503 6.73589 0.00635586 6.75191 -0.00143433 6.7675V16.5602C0.0845312 16.9341 0.227167 17.2767 0.51676 17.5436C0.829241 17.841 1.24555 18.0048 1.67705 18C2.52326 18 3.36947 18 4.21568 18H16.6014C17.6037 18 18.1623 17.5724 18.4192 16.6082C18.4255 16.5916 18.433 16.5755 18.4418 16.5602V6.76894C18.3937 6.62016 18.3654 6.46513 18.3001 6.32594ZM12.7239 10.9571C12.5255 10.6643 12.5721 10.3187 12.8353 10.1282C13.0985 9.93765 13.4505 10.0015 13.6671 10.2962C13.9632 10.6932 14.1225 11.1756 14.1209 11.6708C14.1194 12.166 13.9571 12.6474 13.6584 13.0425C13.4471 13.3286 13.1109 13.3924 12.8386 13.2004C12.5663 13.0084 12.5241 12.6634 12.7219 12.3735C13.0514 11.8911 13.0519 11.4404 12.7239 10.9571ZM5.76306 10.3975C5.7557 10.7314 5.61957 11.0497 5.38306 11.2858C5.14655 11.5219 4.82795 11.6576 4.49375 11.6646C4.1883 11.6713 3.88254 11.6713 3.57646 11.6646C3.2393 11.658 2.91798 11.5204 2.68065 11.2809C2.44332 11.0415 2.30866 10.7191 2.30523 10.3821C2.30234 10.2323 2.30523 10.0821 2.30523 9.93237H2.2937C2.30571 9.71159 2.2937 9.48649 2.33356 9.2705C2.44354 8.64655 2.96414 8.21747 3.60047 8.20931C3.89439 8.20547 4.1883 8.20451 4.48222 8.20931C4.81931 8.21264 5.1418 8.34732 5.38102 8.5847C5.62024 8.82208 5.75732 9.14339 5.76306 9.48025C5.76818 9.78454 5.76818 10.0903 5.76306 10.3975ZM15.0704 14.5035C14.8351 14.7766 14.4777 14.8131 14.2251 14.5957C13.9812 14.3859 13.9668 14.0346 14.1906 13.7605C14.2122 13.7337 14.2328 13.7068 14.2539 13.6799C15.2534 12.3927 15.2327 10.8424 14.1906 9.56712C13.9615 9.28682 13.9816 8.93165 14.2386 8.71999C14.4874 8.51456 14.8399 8.55632 15.0704 8.82366C15.7764 9.6396 16.1241 10.5947 16.1394 11.6679C16.1348 12.3693 15.9622 13.0593 15.6361 13.6804C15.4787 13.9749 15.2889 14.251 15.0704 14.5035Z" fill="#0077C4"/>
</g>
<defs>
<clipPath id="clip0_150_1062">
<rect width="26" height="18" fill="white"/>
</clipPath>
</defs>
</svg>
