<svg width="16" height="15" viewBox="0 0 16 15" fill="none" xmlns="http://www.w3.org/2000/svg">
<path d="M14.4947 6.59892H9.08828V1.19254C9.08828 0.953561 8.99335 0.724372 8.82436 0.555389C8.65538 0.386407 8.42619 0.291473 8.18721 0.291473C7.94824 0.291473 7.71905 0.386407 7.55007 0.555389C7.38108 0.724372 7.28615 0.953561 7.28615 1.19254V6.59892H1.87976C1.64079 6.59892 1.4116 6.69386 1.24261 6.86284C1.07363 7.03182 0.978699 7.26101 0.978699 7.49999C0.978699 7.73897 1.07363 7.96816 1.24261 8.13714C1.4116 8.30612 1.64079 8.40105 1.87976 8.40105H7.28615V13.8074C7.28615 14.0464 7.38108 14.2756 7.55007 14.4446C7.71905 14.6136 7.94824 14.7085 8.18721 14.7085C8.42619 14.7085 8.65538 14.6136 8.82436 14.4446C8.99335 14.2756 9.08828 14.0464 9.08828 13.8074V8.40105H14.4947C14.7336 8.40105 14.9628 8.30612 15.1318 8.13714C15.3008 7.96816 15.3957 7.73897 15.3957 7.49999C15.3957 7.26101 15.3008 7.03182 15.1318 6.86284C14.9628 6.69386 14.7336 6.59892 14.4947 6.59892Z" fill="#231F20"/>
</svg>
