<svg width="26" height="18" viewBox="0 0 26 18" fill="none" xmlns="http://www.w3.org/2000/svg">
<path d="M25.8003 1.4219C25.3771 0.511996 24.6588 0.0212614 23.6602 0.00967463C22.1375 -0.00872791 20.6135 0.00490452 19.0916 0.00422294H2.64245C1.17871 0.00422294 0.433976 0.568567 0.0291118 1.98079C0.0207014 2.00405 0.0109821 2.0268 0 2.04895V15.9551C0.121188 16.4861 0.322267 16.9727 0.730516 17.3517C1.17103 17.774 1.75792 18.0066 2.36622 17.9999C3.55915 17.9999 4.75208 17.9999 5.945 17.9999H23.4056C24.8186 17.9999 25.606 17.3926 25.9682 16.0233C25.977 15.9998 25.9876 15.977 26 15.9551V2.05099C25.9323 1.83971 25.8924 1.61956 25.8003 1.4219ZM17.9393 7.99842C17.6597 7.58266 17.7253 7.09192 18.0963 6.82134C18.4674 6.55075 18.9636 6.6414 19.269 7.05989C19.6865 7.62372 19.911 8.30869 19.9088 9.01192C19.9066 9.71516 19.6778 10.3987 19.2568 10.9599C18.9589 11.3661 18.485 11.4567 18.1011 11.1841C17.7172 10.9115 17.6576 10.4214 17.9366 10.0098C18.401 9.32477 18.4017 8.68477 17.9393 7.99842ZM8.1264 7.2037C8.11603 7.678 7.92411 8.12994 7.5907 8.4652C7.25729 8.80047 6.80815 8.99316 6.33701 9.00306C5.90641 9.01261 5.47537 9.01261 5.04388 9.00306C4.56857 8.99369 4.1156 8.79829 3.78103 8.45829C3.44646 8.11829 3.25662 7.66045 3.25178 7.1819C3.24771 6.96924 3.25178 6.75591 3.25178 6.54326H3.23553C3.25245 6.22973 3.23553 5.91007 3.29172 5.60336C3.44676 4.71732 4.18066 4.10799 5.07773 4.0964C5.49207 4.09095 5.90641 4.08959 6.32076 4.0964C6.79597 4.10113 7.25059 4.29239 7.58783 4.62948C7.92507 4.96657 8.11831 5.42285 8.1264 5.90121C8.13362 6.33333 8.13362 6.76749 8.1264 7.2037ZM21.2472 13.0346C20.9155 13.4224 20.4118 13.4742 20.0557 13.1654C19.7117 12.8676 19.6914 12.3687 20.0069 11.9795C20.0374 11.9413 20.0665 11.9032 20.0963 11.865C21.5052 10.037 21.4761 7.83552 20.0069 6.02458C19.684 5.62654 19.7124 5.12217 20.0746 4.8216C20.4253 4.52988 20.9223 4.58918 21.2472 4.96882C22.2425 6.1275 22.7327 7.48383 22.7543 9.00783C22.7477 10.0038 22.5044 10.9837 22.0448 11.8657C21.8229 12.2839 21.5554 12.676 21.2472 13.0346Z" fill="#0077C4"/>
</svg>
