<?xml version="1.0" encoding="utf-8"?>
<!-- Generator: Adobe Illustrator 24.2.0, SVG Export Plug-In . SVG Version: 6.00 Build 0)  -->
<svg version="1.1" id="Capa_1" xmlns="http://www.w3.org/2000/svg" xmlns:xlink="http://www.w3.org/1999/xlink" x="0px" y="0px"
	 viewBox="0 0 74 24" style="enable-background:new 0 0 74 24;" xml:space="preserve" width="74px">
<style type="text/css">
	.st0{fill-rule:evenodd;clip-rule:evenodd;fill:#006ED2;}
</style>
<path class="st0" d="M48.8,17.3l-4-2.1c-0.5-0.3-1.1-0.1-1.5,0.3c-0.2,0.3-0.5,0.5-0.6,0.7c-1.2,1.2-2.6,1.8-4.3,1.8
	c-3.4,0-5.3-2.6-5.3-5.3c0-3.4,3.1-6.6,6.7-6.6c1.8,0,3.2,0.8,4.2,2c0.3,0.4,0.9,0.5,1.4,0.3C46.6,7.7,49.9,6.1,50,6
	c0.1-0.1,0.1-0.2,0.1-0.3C50,5.7,50,5.5,50,5.5C48.2,2.3,44.7,0,40.4,0c-7.5,0-13.7,6.4-13.7,13.5c0,5.9,4.6,10.5,10.8,10.5
	c4.6,0,8.8-2.5,11.3-6.2c0-0.1,0.1-0.2,0.2-0.3C49,17.4,49,17.3,48.8,17.3z M70.5,0.6c0-0.4-0.3-0.6-0.7-0.6l-8,0
	c-0.4,0-0.8,0.2-1,0.6L48.8,23c-0.1,0.1,0,0.3,0.2,0.3h5.6c0.4,0,0.8-0.2,1-0.6l9.1-17.1H65l1,8.4c0,0.1-0.1,0.2-0.2,0.2h-3.2
	c-0.9,0-1.3,1.1-0.6,1.7l3.6,3.2c0.7,0.6,1.2,1.5,1.3,2.5l0.1,1.1c0,0.4,0.3,0.6,0.7,0.6h5.6c0.1,0,0.2-0.1,0.2-0.2L70.5,0.6z
	 M18.8,12c-0.4,3.3-3.1,6-6.4,6c-3.3,0-5.7-2.7-5.3-6c0.4-3.3,3.4-6,6.7-6C17.2,6,19.2,8.7,18.8,12z M14.5,0C7.7,0,1.6,5.4,0.8,12
	c-0.8,6.6,4,12,10.8,12c6.8,0,12.9-5.4,13.7-12C26.1,5.4,21.3,0,14.5,0z"/>
</svg>
