<?xml version="1.0" encoding="UTF-8"?>
<svg id="Capa_2" data-name="Capa 2" xmlns="http://www.w3.org/2000/svg" viewBox="0 0 65.74 61.79">
  <defs>
    <style>
      .cls-1 {
        fill: #fcfcfd;
      }

      .cls-2 {
        fill: #016398;
      }
    </style>
  </defs>
  <g id="Capa_1-2" data-name="Capa 1">
    <g>
      <path class="cls-2" d="m.09,61.79c-.02-.34-.06-.68-.06-1.02C.03,40.87.02,20.98,0,1.09,0,.15.27,0,1.13,0c60.15.02,3.31.04,63.45.02.37,0,.74.04,1.11.06,0,13.8,0,27.6-.02,41.41,0,3.17.21,6.34-.12,9.5-.66,6.07-5.77,10.68-11.88,10.72h-1.59c-45.48,0-41.15.05-51.99.07ZM34.94,10.77v9.96c0,.35.24.48.43.67,2.66,2.65,5.33,5.3,8,7.94,1.06,1.06,1.09,1.98.03,3.03-2.63,2.61-5.26,5.21-7.9,7.8-.39.35-.61.85-.58,1.38.04,1.89,0,3.79,0,5.69v3.62c.17-.07.23-.08.27-.12,6.07-5.96,12.14-11.92,18.2-17.88,1.24-1.22,1.21-2.72-.02-3.95-1.87-1.86-3.76-3.7-5.65-5.55l-12.79-12.6h0ZM13.08,28.94c-1.27,1.25-1.17,2.76.2,4.09l15.75,15.47c.81.78,1.62,1.56,2.55,2.47v-9.41c.03-.52-.17-1.03-.55-1.39-2.64-2.58-5.27-5.17-7.89-7.77-1.07-1.06-1.07-1.94,0-3.03,2.65-2.64,5.3-5.26,7.95-7.85.24-.23.5-.43.49-.84-.01-3.24,0-6.46,0-9.9-6.28,6.16-12.4,12.15-18.5,18.17h0Z"/>
      <path class="cls-1" d="m34.94,10.77l12.83,12.57c1.89,1.85,3.78,3.69,5.65,5.55,1.23,1.23,1.26,2.72.02,3.95-6.05,5.98-12.12,11.94-18.2,17.88-.04.04-.11.05-.27.12v-3.62c0-1.9.02-3.79,0-5.69-.03-.51.17-1,.55-1.35,2.64-2.58,5.27-5.17,7.89-7.77,1.06-1.05,1.03-1.97-.03-3.03-2.67-2.64-5.34-5.29-8-7.94-.19-.19-.43-.33-.43-.67,0-3.28,0-6.53,0-9.99Zm-3.36,0v9.88c0,.41-.26.61-.49.84-2.65,2.62-5.3,5.24-7.94,7.86-1.07,1.07-1.07,1.97,0,3.03,2.62,2.6,5.25,5.2,7.89,7.79.39.35.59.86.56,1.38-.03,3.07,0,6.15,0,9.41-.93-.9-1.74-1.68-2.55-2.47-5.26-5.15-10.51-10.31-15.76-15.47-1.35-1.33-1.49-2.84-.2-4.09,6.1-6.02,12.22-12.01,18.5-18.17Z"/>
    </g>
  </g>
</svg>