<?xml version="1.0" encoding="UTF-8"?>
<svg id="Capa_2" data-name="Capa 2" xmlns="http://www.w3.org/2000/svg" viewBox="0 0 120 38.76">
  <defs>
    <style>
      .cls-1 {
        fill: #fff;
      }
    </style>
  </defs>
  <g id="Capa_1-2" data-name="Capa 1">
    <path class="cls-1" d="m78.16,0c-8.52,0-16.13,4.4-16.13,12.54,0,9.33,13.5,9.97,13.5,14.66,0,1.97-2.27,3.74-6.14,3.74-5.5,0-9.61-2.47-9.61-2.47l-1.76,8.21s4.73,2.08,11.02,2.08c9.32,0,16.65-4.62,16.65-12.89,0-9.86-13.56-10.48-13.56-14.83,0-1.55,1.86-3.24,5.72-3.24,4.36,0,7.92,1.8,7.92,1.8l1.72-7.93S83.62,0,78.16,0ZM.21.6l-.21,1.2s3.59.65,6.81,1.96c4.16,1.5,4.45,2.37,5.15,5.07l7.63,29.32h10.23L45.58.6h-10.2l-10.12,25.53-4.13-21.64c-.38-2.48-2.3-3.89-4.65-3.89H.21Zm49.47,0l-8.01,37.54h9.73L59.38.6s-9.7,0-9.7,0Zm54.26,0c-2.35,0-3.59,1.25-4.5,3.44l-14.25,34.1h10.2l1.97-5.68h12.43l1.2,5.68h9L112.15.6s-8.2,0-8.2,0Zm1.33,10.14l3.02,14.09h-8.1s5.08-14.09,5.08-14.09Z"/>
  </g>
</svg>