<?xml version="1.0" encoding="UTF-8"?>
<svg id="Capa_2" data-name="Capa 2" xmlns="http://www.w3.org/2000/svg" viewBox="0 0 100.75 77.6">
  <defs>
    <style>
      .cls-1 {
        fill: #fff;
      }

      .cls-1, .cls-2, .cls-3, .cls-4 {
        fill-rule: evenodd;
      }

      .cls-2 {
        fill: #ea001b;
      }

      .cls-3 {
        fill: #f79f1a;
      }

      .cls-4 {
        fill: #ff5f01;
      }
    </style>
  </defs>
  <g id="Capa_1-2" data-name="Capa 1">
    <g>
      <path class="cls-3" d="m100.75,30.93c0,17.08-13.95,30.93-31.16,30.93s-31.16-13.85-31.16-30.93c0-17.08,13.95-30.93,31.16-30.93s31.16,13.85,31.16,30.93Z"/>
      <path class="cls-2" d="m62.31,30.93c0,17.08-13.95,30.93-31.16,30.93S0,48.01,0,30.93,13.95,0,31.16,0s31.16,13.85,31.16,30.93Z"/>
      <path class="cls-4" d="m50.37,6.58c-7.27,5.66-11.94,14.46-11.94,24.35s4.67,18.69,11.94,24.35c7.27-5.66,11.94-14.47,11.94-24.35s-4.67-18.68-11.94-24.35Z"/>
      <path class="cls-1" d="m6.93,77.16h-1.77v-8.18h1.73v1s1.52-1.22,2.43-1.2c1.76.03,2.81,1.51,2.81,1.51,0,0,.85-1.51,2.77-1.51,2.84,0,3.26,2.58,3.26,2.58v5.77h-1.7v-5.08s0-1.54-1.84-1.54-2.08,1.55-2.08,1.55v5.08h-1.77v-5.12s-.17-1.61-1.77-1.61c-2.08,0-2.11,1.65-2.11,1.65,0,0,.04,5.12.04,5.12Zm53.77-8.38c-.9-.01-2.43,1.2-2.43,1.2v-.99h-1.74v8.17h1.77l-.03-5.12s.04-1.64,2.11-1.64c.39,0,.69.09.92.23h0s.58-1.6.58-1.6c-.38-.16-.78-.25-1.19-.26Zm24.9,0c-.9-.01-2.43,1.2-2.43,1.2v-.99h-1.74v8.17h1.77l-.03-5.12s.04-1.64,2.11-1.64c.39,0,.68.09.92.23h0s.58-1.6.58-1.6c-.38-.16-.78-.25-1.19-.26Zm-61.72-.03c-2.65,0-4.05,2.36-4.05,4.32,0,2.02,1.59,4.35,4.13,4.35,1.48,0,2.69-1.08,2.69-1.08v.83s1.74,0,1.74,0v-8.18h-1.75v1.03s-1.14-1.27-2.76-1.27Zm.34,1.67c1.42,0,2.58,1.23,2.58,2.73s-1.15,2.73-2.58,2.73-2.57-1.22-2.57-2.73,1.15-2.73,2.57-2.73h0Zm50.41-1.67c-2.65,0-4.05,2.36-4.05,4.32,0,2.02,1.59,4.35,4.13,4.35,1.48,0,2.69-1.08,2.69-1.08v.83s1.74,0,1.74,0v-8.18h-1.75v1.03s-1.14-1.27-2.76-1.27Zm.34,1.67c1.42,0,2.58,1.23,2.58,2.73s-1.15,2.73-2.58,2.73-2.57-1.22-2.57-2.73,1.15-2.73,2.57-2.73h0Zm16.37-1.67c-2.65,0-4.05,2.36-4.05,4.32,0,2.02,1.59,4.35,4.13,4.35,1.48,0,2.69-1.08,2.69-1.08v.83s1.74,0,1.74,0v-11.41h-1.75v4.26s-1.14-1.27-2.76-1.27Zm.34,1.67c1.42,0,2.58,1.23,2.58,2.73s-1.15,2.73-2.58,2.73-2.57-1.22-2.57-2.73,1.15-2.73,2.57-2.73h0Zm-57.99,7.03c-1.8,0-3.47-1.1-3.47-1.1l.76-1.17s1.57.72,2.7.72c.73,0,1.96-.23,1.98-.96.01-.77-2.06-1-2.06-1,0,0-3.1-.04-3.1-2.58,0-1.59,1.55-2.61,3.54-2.61,1.15,0,3.29,1,3.29,1l-.87,1.34s-1.66-.66-2.53-.69c-.74-.03-1.63.32-1.63.96,0,1.73,5.17-.14,5.17,3.37,0,2.3-2.1,2.71-3.78,2.71Zm6.65-10.82v2.38h-1.54v1.72h1.54v4.11s-.14,2.78,2.88,2.78c.83,0,2.47-.61,2.47-.61l-.7-1.79s-.65.55-1.38.53c-1.4-.04-1.36-.92-1.36-.92v-4.1h2.87v-1.72h-2.87v-2.38s-1.91,0-1.91,0Zm10.47,2.23c-2.84,0-4.26,2.31-4.24,4.32.01,2.07,1.29,4.39,4.41,4.39,1.34,0,3.21-1.16,3.21-1.16l-.81-1.39s-1.28.9-2.41.9c-2.25,0-2.4-2.18-2.4-2.18h6.03s.45-4.88-3.8-4.88Zm-.26,1.61c.07,0,.14,0,.21,0,2.12,0,2.11,1.99,2.11,1.99h-4.29s-.1-1.87,1.97-1.99h0Zm18.2,4.54l.81,1.6s-1.28.83-2.72.83c-2.98,0-4.63-2.22-4.63-4.32,0-3.3,2.63-4.27,4.41-4.27,1.62,0,3.02.92,3.02.92l-.91,1.6s-.55-.85-2.16-.85-2.45,1.37-2.45,2.67c0,1.46.99,2.7,2.48,2.7,1.17,0,2.16-.88,2.16-.88Z"/>
    </g>
  </g>
</svg>