<?xml version="1.0" encoding="UTF-8"?>
<svg id="Capa_2" data-name="Capa 2" xmlns="http://www.w3.org/2000/svg" viewBox="0 0 204.12 53.76">
  <defs>
    <style>
      .cls-1 {
        fill: #fff;
      }

      .cls-2 {
        fill: #004a97;
      }

      .cls-2, .cls-3 {
        fill-rule: evenodd;
      }
    </style>
  </defs>
  <g id="Capa_1-2" data-name="Capa 1">
    <g>
      <ellipse class="cls-1" cx="27.38" cy="27.34" rx="26.24" ry="25.95"/>
      <path class="cls-3" d="m190.04,10.75v12.15c0,1.69-.14,3.37-.4,5.03l.6.31.85-.65c1.23.65,2.59.99,3.98.99,4.07,0,6.79-3.7,6.79-7.41,0-3.07-2-5.93-5.32-5.93-1.61.19-3.11.9-4.26,2.03V6.95c0-.23,0-.4-.23-.4-.22.08-.43.18-.62.31-.94.49-1.93.9-2.95,1.22v.46c1.13.31,1.56.38,1.56,2.22h0Zm2.29,7.36c.72-.75,1.68-1.23,2.72-1.34,2.23,0,4.57,2.54,4.57,5.6,0,2.52-1.29,5.49-4.35,5.49-1.59-.07-2.86-1.32-2.95-2.89v-6.87h0Zm-96.39,10.07v-.74h-.49c-.8,0-1.43,0-1.43-.94v-10.86c0-.23,0-.39-.2-.39-.18,0-.36.05-.52.14-.11.09-1.71.62-3.06,1.02v.46c1.06.56,1.49.72,1.49,1.97v7.66c0,.94-.57.94-1.36.94h-.67v.74h3.12c1.03,0,2.05-.01,3.03-.01h.07Zm15.19-.74h-.51c-.8,0-1.43,0-1.43-.94v-7.29c0-2.2-.86-3.96-3.29-3.96-1.84.15-3.58.89-4.96,2.12v-1.84c0-.23-.08-.28-.16-.28-1.23.51-2.49.96-3.77,1.34v.54c1.36.54,1.66.82,1.66,1.87v7.49c0,.94-.57.94-1.36.94h-.52v.74h6.12v-.74h-.51c-.8,0-1.44,0-1.44-.94v-8.36c.99-.7,2.13-1.16,3.33-1.34.69-.11,1.39.1,1.91.57.51.47.78,1.14.73,1.83v7.32c0,.94-.57.94-1.36.94h-.52v.74h6.12v-.74h-.04Zm-34.09.74c10.13,0,11.79-7.03,11.79-9.84,0-5.01-4.07-9.89-11.43-9.89h-8.31v.73c1.29,0,2.63-.14,2.63,2.4v13.72c-.08,1.92-.92,1.97-2.63,2.15v.74h3.83c1.29,0,2.59-.01,4.04-.01h.08s0,.01,0,.01Zm-2.55-18.71c.52,0,1.06-.11,2.23-.11,5.53,0,8.95,3.81,8.95,9.1,0,4.22-2.02,8.82-8.15,8.82-1.36,0-2.97-.25-2.97-2.43v-15.4h-.06Zm99.97,18.71v-.74h-.57c-.8,0-1.43,0-1.43-.94V6.95c0-.23,0-.4-.23-.4-.22.08-.43.18-.62.31-.94.49-1.93.9-2.95,1.22v.46c1.09.31,1.52.36,1.52,2.2v15.75c0,.94-.57.94-1.36.94h-.54v.74h6.18s0,.01,0,.01Zm-44.8,0v-.74h-1.66c-.8,0-1.36,0-1.36-.94v-6.65c.01-1.19.91-2.2,2.09-2.35,1.01,0,1.01.69,1.89.69.38,0,.74-.16,1-.43.26-.28.39-.65.36-1.02-.01-.42-.19-.81-.49-1.09-.31-.28-.72-.43-1.13-.41-1.74,0-2.95,1.81-3.65,2.91v-2.54c0-.28-.08-.36-.26-.36s-1.36.74-3.49,1.61v.42c.43.23,1.48.4,1.48,1.27v7.95c0,.94-.57.94-1.36.94h-.77v.74h3.41c1.18,0,2.32-.04,3.9-.01h.05s0,.01,0,.01Zm46.5-10.17v7.24c-.09.87.2,1.74.8,2.38.6.64,1.45,1,2.33.98,2.04,0,3.35-.99,5.06-2.38v2.28l.14.08c1.34-.39,2.7-.68,4.07-.87v-.59h-1.14c-.49,0-.8,0-.8-.54v-10.43c0-.31,0-.51-.23-.51s-1.89.23-4.47.39v.51c1.03.28,2.4.59,2.4,1.15v7.61c-.95.91-2.16,1.51-3.46,1.72-2.48,0-2.48-2.43-2.48-3.28v-7.29c0-.62,0-.82-.31-.82s-2.71.16-3.69.2v.54c1.62.16,1.72.87,1.72,1.61h.05s0,.01,0,.01Zm-39.29,9.69c-1.91-.08-3.47-1.56-3.61-3.45l-.52.15.31,3.25c1.07.59,2.27.92,3.49.95,3.41,0,4.91-1.99,4.91-3.84,0-4.44-6.64-3.42-6.64-6.71.03-.55.29-1.05.71-1.41s.97-.52,1.52-.46c.79-.05,1.57.22,2.16.75.59.53.93,1.27.96,2.06h.65l-.2-2.89c-1.01-.51-2.12-.79-3.26-.82-3.15,0-4.44,2.03-4.44,3.62,0,4.55,6.23,3.48,6.23,6.82,0,.58-.27,1.13-.71,1.51-.45.38-1.04.54-1.62.45h.05s0,.01,0,.01Zm-44.06-16.79c.76-.03,1.35-.65,1.36-1.41,0-.75-.61-1.35-1.36-1.34h0c-.77,0-1.39.62-1.39,1.38s.62,1.38,1.39,1.38Zm73.8,16.2l.65-4.14-.65-.16c-.43,2.81-2.88,4.89-5.76,4.89-4.4,0-8.53-4.09-8.53-9.81,0-6.78,4.78-8.95,8.06-8.95s5.58,1.34,6.11,4.63h.72l-.29-4.03c-2.16-.88-4.46-1.39-6.79-1.5-5.61,0-10.86,4.16-10.86,9.96,0,6.36,4.22,10.63,10.86,10.63,2.24-.06,4.44-.58,6.46-1.53h0Zm-50.23,1.5c2.18-.14,4.15-1.33,5.29-3.19l-.39-.39c-.97,1.13-2.37,1.82-3.86,1.89-2.28,0-4.07-2.2-4.19-4.89-.07-.54-.07-1.09,0-1.64h8.04l.26-.17c.01-.17.01-.34,0-.51-.01-1.24-.54-2.41-1.45-3.25-.92-.84-2.14-1.27-3.38-1.18-2,0-5.77,1.64-5.77,7.18.01,1.77.92,6.14,5.47,6.14,0,0-.01.01-.01.01Zm.19-12.44c.69-.02,1.35.25,1.83.75.47.5.71,1.17.65,1.85.04.21-.04.43-.2.57-.16.14-.39.2-.6.14h-4.98c.38-2.05,1.57-3.33,3.33-3.33h-.03Zm-31.7,18.18h-2.21v.59h.41c.36-.02.71.12.96.37.25.26.37.61.33.97v5.65l-6.79-7.61h-3.23v.59h.27c.75,0,1.36.6,1.36,1.34v6.48c0,1.22-.31,1.88-1.36,1.89h-.29v.59h4.2v-.59h-.34c-1.17,0-1.36-.39-1.36-1.73v-6.16l7.9,8.7h.72v-.08c-.07-.51-.1-1.03-.1-1.54v-7.01c0-1.81.68-1.87,1.36-1.89h.3v-.64h-.07c-.76,0-1.4.07-2.04.07,0,0-.03.01-.03.01Zm-13.64,0h-2.38v.59h.29c.57,0,1.09,0,1.09.82v8.05c0,.75-.51.81-1.09.82h-.29v.59h4.87v-.59h-.3c-.57,0-1.09,0-1.09-.82v-8.05c0-.75.52-.81,1.09-.82h.29v-.67h-.01c-.73,0-1.63.07-2.44.07,0,0-.03.01-.03.01Zm130.9,8.05c-.09.39-.25.75-.46,1.09-.36.45-.87.74-1.44.81-.39.02-.79.02-1.18,0h-.86c-.22.02-.44-.06-.61-.21-.17-.15-.26-.36-.26-.58v-7.93c0-.78.39-.75.99-.76h.45v-.54h-4.82v.59h.29c.57,0,1.1,0,1.1.81v7.91c.04.29-.07.58-.29.78-.22.19-.53.27-.81.19h-.29v.59h8.15c.19-.87.41-1.73.57-2.62v-.08h-.58l.05-.03h0Zm-9.88,1.58c-.2-.46-.39-1.02-.57-1.56l-2.87-8.06c0-.12-.1-.27-.14-.39-.03-.06-.1-.1-.18-.09-.05,0-.1,0-.15,0-.43.26-.88.48-1.36.66-.17.66-.37,1.31-.61,1.95l-2.49,7.06c-.18.59-.74.98-1.36.95h-.15v.6h3.72v-.6h-.24c-.52,0-1.1-.09-1.1-.47.07-.4.19-.8.34-1.18l.48-1.56h3.43l.58,1.74c.15.35.25.71.31,1.09,0,.29-.54.38-.9.38h-.19v.6h4.55v-.6h-.16c-.4.04-.77-.18-.94-.54h-.03s0,.01,0,.01Zm-6.35-3.62l1.36-4.12,1.36,4.12h-2.72Zm-3.33-5.48v-.62h-4.15v.59h.41c.36-.03.72.11.97.37.25.26.37.62.32.97v5.65l-6.79-7.61h-3.23v.59h.27c.75,0,1.36.6,1.36,1.34v6.48c0,1.22-.3,1.88-1.36,1.88h-.29v.6h4.2v-.6h-.38c-1.17,0-1.36-.39-1.36-1.73v-6.16l7.9,8.7h.72v-.08c-.07-.51-.09-1.03-.08-1.54v-7.01c0-1.81.68-1.87,1.36-1.89h.3l-.16.07h0Zm20.36,1.09l-.27-.38c.23-.05.39-.26.39-.5,0-.13-.08-.26-.18-.34-.11-.08-.24-.12-.38-.09h-.84v.08c.22,0,.23,0,.23.22v1.19q0,.12-.24.15v.11h.76v-.08c-.2,0-.23,0-.23-.13v-.54h.23c.13.29.33.55.58.74h.33c-.15-.13-.27-.28-.37-.46v.03s-.01,0-.01,0Zm-.53-.42h-.19v-.76h.19c.09,0,.18.03.25.1.06.07.09.16.08.25.02.1-.01.19-.07.27-.06.07-.15.12-.25.12v.03Zm-38.75-1.49c-1.54-.02-3.03.58-4.13,1.66-1.09,1.08-1.7,2.55-1.68,4.08-.02,1.54.6,3.01,1.71,4.07,1.12,1.06,2.64,1.62,4.18,1.53,1.6.05,3.15-.57,4.28-1.7,1.13-1.12,1.73-2.67,1.66-4.26,0-3.36-2.67-5.41-6.01-5.41v.03s-.01,0-.01,0Zm.23,10.52c-2.46,0-3.72-2.58-3.73-5.37,0-2.05.8-4.39,3.46-4.39s3.75,2.69,3.75,4.9-.5,4.83-3.46,4.83v.03s-.01,0-.01,0Zm38.58-10.66c-.91,0-1.64.73-1.64,1.62s.74,1.62,1.64,1.62,1.64-.73,1.64-1.62c.01-.44-.15-.86-.46-1.17-.31-.31-.73-.49-1.17-.48,0,0-.01.03-.01.03Zm0,2.94c-.75,0-1.35-.6-1.36-1.34h0c0-.75.61-1.35,1.36-1.34h0c.75,0,1.36.6,1.36,1.34-.02.73-.61,1.31-1.34,1.31v.03Zm-70.66-2.01v-.59h-4.1v.59h.41c.36-.03.72.11.97.37s.37.62.32.97v5.65l-6.79-7.61h-3.29v.59h.27c.75,0,1.36.6,1.36,1.34v6.47c0,1.24-.31,1.88-1.36,1.89h-.29v.59h4.19v-.59h-.33c-1.17,0-1.36-.39-1.36-1.73v-6.16l7.9,8.7h.72v-.08c-.07-.51-.1-1.03-.1-1.54v-7.01c0-1.81.68-1.87,1.36-1.89h.1v.04h0Zm-14.51,8.79l-2.61-3.87c1.21-.35,2.06-1.43,2.13-2.68,0-2.23-1.82-2.77-3.77-2.77h-4.93v.59h.35c.49,0,1.02,0,1.03,1.1v7.81c-.03.24-.15.46-.35.6-.2.14-.44.2-.68.16h-.35v.59h5.04v-.59h-.35c-.72,0-1.19,0-1.21-1.17v-3.22h.92c.96,1.73,2.03,3.39,3.22,4.97h3.05v-.59c-.63,0-1.2-.37-1.48-.94h-.01,0Zm-5.04-4.19h-.68v-4.39c.27-.02.54-.02.82,0,.6-.04,1.19.17,1.61.59.43.42.64,1,.6,1.6.09.63-.13,1.26-.6,1.7-.46.44-1.11.63-1.74.52h-.01Zm-14.62-5.73v.07c0,.4-.34.4-.77.42h-8.15c-.39,0-.68,0-.79-.4h-.49v.07c0,.45-.03.9-.1,1.34,0,.44-.12.87-.19,1.34v.08h.6c.26-1.14.23-1.34,1.36-1.34h2.48v8.15c0,1.19-.37,1.21-1.22,1.22h-.37v.59h5.17v-.59h-.37c-.75,0-1.21-.09-1.22-1.26v-8.06h2.48c.34.02.66.19.87.46.21.27.29.62.22.95v.09l.71-.44v-1.25c0-.42.11-.83.16-1.24l-.43-.07h-.07l.11-.13h0Zm9.3,8.66c-.46,1.73-1.22,1.83-3.1,1.83-1.02,0-1.83,0-1.83-.94v-3.52h1.81c1.03,0,1.04.52,1.14,1.46v.07l.54-.11v-3.56h-.6c-.11.83-.26,1.34-1.17,1.34h-1.79v-3.89h2.11c.5-.1,1.01.04,1.38.39.37.35.54.85.45,1.34v.08l.54-.15v-2.47h-7.92v.59h.29c.56,0,1.07,0,1.09.82v8.05c0,.75-.52.81-1.09.82h-.29v.59h8.32c.14-.82.33-1.62.53-2.44l-.5-.13.08-.17h0Zm48.09-8.06h-2.31v.59h.29c.57,0,1.07,0,1.09.82v8.05c0,.75-.51.81-1.09.82h-.29v.59h4.75v-.59h-.29c-.57,0-1.09,0-1.09-.82v-8.05c0-.75.52-.81,1.09-.82h.29v-.66c-.75,0-1.67.07-2.44.07Zm-13.58,9.64c-.2-.46-.39-1.02-.57-1.56l-2.87-8.05-.14-.39c-.03-.06-.1-.09-.16-.09-.05,0-.1,0-.15,0-.43.26-.89.48-1.36.66-.17.66-.38,1.31-.62,1.95l-2.5,7.06c-.18.57-.7.95-1.29.95h-.16v.6h3.68v-.6h-.23c-.52,0-1.1-.09-1.1-.47.08-.4.19-.8.34-1.18l.49-1.56h3.43l.6,1.74c.14.35.24.72.3,1.09,0,.3-.53.38-.9.38h-.24v.6h4.67v-.6h-.16c-.42.09-.84-.13-1.02-.52h-.04,0Zm-6.35-3.62l1.36-4.12,1.36,4.12h-2.72Zm16.56-6.56v.07c0,.4-.34.4-.77.42h-8.15c-.39,0-.68,0-.79-.4h-.49v.07c0,.45-.03.9-.1,1.34,0,.44-.12.87-.19,1.34v.08h.6c.26-1.14.23-1.34,1.36-1.34h2.49v8.15c0,1.19-.37,1.21-1.22,1.22h-.37v.59h5.17v-.59h-.37c-.75,0-1.21-.1-1.22-1.26v-8.06h2.48c.34.02.66.19.87.46.21.27.29.62.22.95v.09l.56-.2v-1.25c0-.42.11-.83.18-1.24l-.45-.07h-.07l.26-.38h0Z"/>
      <path class="cls-2" d="m27.42,53.76C12.42,53.87.16,41.95,0,27.12,0,11.09,12.38,0,27.42,0h7.05c14.87,0,28.43,11.07,28.43,27.12,0,14.66-13.58,26.65-28.43,26.65h-7.05Zm0-51.53C13.68,2.23,2.54,13.25,2.54,26.84s11.14,24.6,24.89,24.6,24.88-11.02,24.88-24.61S41.2,2.26,27.48,2.23h-.06,0Zm-5.58,39.16V12.24c-6.12,2.3-10.17,8.1-10.17,14.57s4.05,12.27,10.17,14.57Zm21.42-14.55c0-6.47-4.03-12.28-10.14-14.59v29.12c6.09-2.31,10.12-8.08,10.14-14.52Z"/>
    </g>
  </g>
</svg>