<?xml version="1.0" encoding="UTF-8"?> <svg xmlns="http://www.w3.org/2000/svg" id="Capa_1" data-name="Capa 1" viewBox="0 0 172 34"><defs><style>.cls-1,.cls-5{fill:#fff;}.cls-2{fill:#003380;}.cls-3,.cls-4{fill:#b8c40d;}.cls-4,.cls-5{fill-rule:evenodd;}</style></defs><title>redpagos</title><rect class="cls-1" x="-0.19" y="-0.07" width="172.19" height="34.52"></rect><rect class="cls-2" x="1.91" y="8.47" width="167.99" height="23.89"></rect><rect class="cls-3" x="1.91" y="1.83" width="167.98" height="7.04"></rect><path class="cls-4" d="M60.8,20.94a3.25,3.25,0,0,0,.11-.42,1.84,1.84,0,0,0,.05-.41c0-.14,0-.28,0-.42s0-.28,0-.42a3.64,3.64,0,0,0-.55-2,2.18,2.18,0,0,0-2-.87,3.52,3.52,0,0,0-2.75,1.17,7.37,7.37,0,0,0-1.54,2.59,1.66,1.66,0,0,0-.14.37,2.26,2.26,0,0,1-.11.37c0,.14-.07.28-.1.43s-.06.3-.08.44,0,.28-.05.43,0,.29,0,.43a3.61,3.61,0,0,0,.54,2,2,2,0,0,0,1.86.87,3.76,3.76,0,0,0,2.74-1.13,7.59,7.59,0,0,0,1.68-2.51c0-.13.08-.28.14-.43s.09-.29.13-.43m-1.66,7.27.62-2.5a7,7,0,0,1-2.52,2,7.14,7.14,0,0,1-3,.67A4.42,4.42,0,0,1,50.54,27a5.36,5.36,0,0,1-1.09-3.44,6.75,6.75,0,0,1,.08-1.07c0-.38.11-.76.2-1.16l.06-.29c0-.08,0-.18.06-.28s0,0,0,0a.07.07,0,0,0,0-.05,12.83,12.83,0,0,1,2.89-5.15,7,7,0,0,1,5.44-2.35,4.66,4.66,0,0,1,2.64.68,3.62,3.62,0,0,1,1.41,2,9.66,9.66,0,0,1,.21-1.31c.1-.44.22-.88.34-1.31l1.73-6.53h3.95l-4.6,17.16c-.06.24-.12.48-.19.71s-.11.48-.15.72c-.12.48-.24.95-.35,1.43s-.22.95-.33,1.43ZM44.2,19.42c0-.22.08-.44.11-.65a4.7,4.7,0,0,0,0-.63,2.74,2.74,0,0,0-.53-1.68,2.08,2.08,0,0,0-1.79-.7,4,4,0,0,0-2.82,1.1,6.64,6.64,0,0,0-1.68,2.56Zm.56,8.16c-.37.14-.74.27-1.1.38a10.12,10.12,0,0,1-1.09.25,16.12,16.12,0,0,1-1.67.27,15.12,15.12,0,0,1-1.63.09,7.19,7.19,0,0,1-4.68-1.34A4.69,4.69,0,0,1,33,23.41a8.8,8.8,0,0,1,.09-1.23c.07-.43.16-.87.28-1.33a11,11,0,0,1,3.43-5.55,8.93,8.93,0,0,1,6.11-2.22,4.94,4.94,0,0,1,3.95,1.4A5.24,5.24,0,0,1,48,18a8.75,8.75,0,0,1-.11,1.34c-.07.46-.17.93-.29,1.4a1.69,1.69,0,0,1-.09.34c0,.11-.09.22-.13.32l0,.1,0,.11a1.43,1.43,0,0,1-.08.22,1.42,1.42,0,0,0-.07.22H36.89c0,.14,0,.27,0,.39s0,.24,0,.36a2.58,2.58,0,0,0,1,2.19,4.25,4.25,0,0,0,2.61.76A8.1,8.1,0,0,0,43,25.33a20,20,0,0,0,2.56-1Zm-23.95.63L23.59,17.9c.06-.29.13-.59.2-.89s.15-.6.23-.89a1.08,1.08,0,0,0,.05-.21,1,1,0,0,1,.05-.24c.1-.36.19-.72.27-1.09s.17-.74.25-1.12h3.58l-.9,3.73a10.39,10.39,0,0,1,2.18-2.7,4.61,4.61,0,0,1,3.13-1.14,3.73,3.73,0,0,1,.59,0l.55.1-1,3.58a6.19,6.19,0,0,0-.65-.15,3.91,3.91,0,0,0-.68-.06,3.86,3.86,0,0,0-3.18,1.36,9.53,9.53,0,0,0-1.66,3,3,3,0,0,1-.1.33,2.66,2.66,0,0,0-.09.32l-.06.3-1.64,6.08Z"></path><path class="cls-5" d="M138.1,24.6a10,10,0,0,0,1.7.75,6,6,0,0,0,1.91.3l.59,0a4.52,4.52,0,0,0,1.87-.64,1.61,1.61,0,0,0,.72-1,.31.31,0,0,0,0-.13v-.14a.89.89,0,0,0-.45-.77,6.09,6.09,0,0,0-1.09-.57l-.57-.22a3.68,3.68,0,0,1-.57-.26,6.76,6.76,0,0,1-1.85-1.1,2.41,2.41,0,0,1-.84-2,5.13,5.13,0,0,1,0-.53,2.66,2.66,0,0,1,.13-.58,4.8,4.8,0,0,1,2.06-2.9,9.65,9.65,0,0,1,3.34-1.39l1.15-.14a10.71,10.71,0,0,1,1.1-.06,10.49,10.49,0,0,1,1.87.16c.6.11,1.19.24,1.77.4L150,16.62a13,13,0,0,0-1.49-.4,7.8,7.8,0,0,0-1.59-.16l-.62,0c-.23,0-.45.05-.68.09a4.19,4.19,0,0,0-1.17.46,1.41,1.41,0,0,0-.71.91.28.28,0,0,0,0,.13v.13a.83.83,0,0,0,.46.73,5.75,5.75,0,0,0,1.11.52,5.54,5.54,0,0,0,.57.21,4.79,4.79,0,0,1,.57.21,6.93,6.93,0,0,1,1.9,1.06,2.44,2.44,0,0,1,.85,2l-.06.56a3.07,3.07,0,0,1-.13.63,5.28,5.28,0,0,1-2.25,3.16,8.86,8.86,0,0,1-3.61,1.37,6.58,6.58,0,0,1-.86.12l-.87,0a13.15,13.15,0,0,1-2.2-.18c-.71-.12-1.41-.27-2.09-.45Zm-5.74-3.72a7,7,0,0,0,.19-.91,7.19,7.19,0,0,0,.06-.94,3.87,3.87,0,0,0-.62-2.18,2.34,2.34,0,0,0-2.13-.94,4.06,4.06,0,0,0-2.93,1.2,8.29,8.29,0,0,0-1.85,2.67,4.85,4.85,0,0,0-.2.51c0,.15-.1.31-.14.47s-.08.32-.11.48,0,.32-.07.48a3.05,3.05,0,0,0-.08.5c0,.16,0,.32,0,.48a3.94,3.94,0,0,0,.65,2.14,2.39,2.39,0,0,0,2.16.93,4,4,0,0,0,2.87-1.18A8.17,8.17,0,0,0,132,22c.08-.18.16-.36.23-.55A3.14,3.14,0,0,0,132.36,20.88Zm4.08.09a10,10,0,0,1-3.68,5.51,10.18,10.18,0,0,1-6.32,2.09,6.45,6.45,0,0,1-4.55-1.48,5.15,5.15,0,0,1-1.59-4,7.7,7.7,0,0,1,.09-1.14,12,12,0,0,1,.25-1.22,10,10,0,0,1,3.65-5.55,10.08,10.08,0,0,1,6.31-2.13,6.28,6.28,0,0,1,4.57,1.55,5.23,5.23,0,0,1,1.57,4,8.59,8.59,0,0,1-.07,1.11A10.22,10.22,0,0,1,136.44,21Zm-22.68-.3a5.89,5.89,0,0,0,.13-.71,4.36,4.36,0,0,0,0-.72,3.49,3.49,0,0,0-.59-2,2.16,2.16,0,0,0-1.94-.88,3.62,3.62,0,0,0-2.76,1.17,6.83,6.83,0,0,0-1.56,2.53c0,.1-.08.2-.11.3s0,.19-.08.29a6.11,6.11,0,0,0-.18.85,6.18,6.18,0,0,0-.06.85,3.49,3.49,0,0,0,.54,1.94,2.06,2.06,0,0,0,1.87.83A3.72,3.72,0,0,0,111.78,24a7.37,7.37,0,0,0,1.7-2.45q.09-.24.15-.45C113.67,21,113.71,20.81,113.76,20.67Zm5.86-7.18-3.46,12.93a11.59,11.59,0,0,1-3.47,6l-.21.18H101.27l.88-2.42a13.73,13.73,0,0,0,2.06.85,7.37,7.37,0,0,0,2.29.35,5.44,5.44,0,0,0,.57,0l.61-.09a6.25,6.25,0,0,0,1.88-.64,4.65,4.65,0,0,0,1.57-1.36,5,5,0,0,0,.63-1c.18-.38.34-.76.48-1.13s.2-.63.28-.93.17-.58.25-.86a8.71,8.71,0,0,1-2.56,2.07,7.26,7.26,0,0,1-3,.88h-.28a4.07,4.07,0,0,1-3.48-1.39,5.43,5.43,0,0,1-1-3.38c0-.31,0-.65.08-1a6.74,6.74,0,0,1,.17-1.05c0-.1,0-.21.07-.33s.06-.24.08-.36a12.94,12.94,0,0,1,2.84-5.17A6.89,6.89,0,0,1,111,13.2a5.34,5.34,0,0,1,2.7.62,3,3,0,0,1,1.43,2l.71-2.36Zm-23.73,8-.23,0H93.9a8.48,8.48,0,0,0-1.13.11,6.78,6.78,0,0,0-2.19.65A2.59,2.59,0,0,0,89.22,24a2,2,0,0,0,0,.24,1.94,1.94,0,0,0,0,.24,1.19,1.19,0,0,0,.57,1.05,2.4,2.4,0,0,0,1.35.38,4.08,4.08,0,0,0,3.1-1.31,7.29,7.29,0,0,0,1.68-2.87.34.34,0,0,1,0-.1A.25.25,0,0,0,95.89,21.51Zm-1.6,6.7L94.81,26a6.84,6.84,0,0,1-2,1.58,6.68,6.68,0,0,1-2.3.75,3.45,3.45,0,0,1-.55.07l-.56,0a5.6,5.6,0,0,1-3.09-.79,2.65,2.65,0,0,1-1.17-2.43,4.62,4.62,0,0,1,0-.65,4.69,4.69,0,0,1,.14-.69,5.1,5.1,0,0,1,2.43-3.31,11.39,11.39,0,0,1,3.86-1.31c.45-.06.91-.1,1.36-.13s.89-.05,1.33-.05l.54,0h.53l.19,0h.19l.35,0h.36a6.22,6.22,0,0,0,.13-.65,4,4,0,0,0,0-.6A1.74,1.74,0,0,0,96,16.4a3.43,3.43,0,0,0-2-.49A8,8,0,0,0,93,16a8.58,8.58,0,0,0-1,.18,10.81,10.81,0,0,0-3.21,1.37l.77-3.31c.31-.12.62-.22.93-.31l.92-.26a15,15,0,0,1,1.87-.34,16.59,16.59,0,0,1,1.84-.1h.37l.37,0a8,8,0,0,1,2.53.53,3.26,3.26,0,0,1,1.76,1.58,2.71,2.71,0,0,1,.21.7,4.77,4.77,0,0,1,.06.76c0,.22,0,.44,0,.67s-.06.46-.1.7-.12.47-.17.7-.11.45-.17.67c-.39,1.45-.77,2.89-1.14,4.34s-.71,2.88-1,4.33ZM79.78,20.88a2.22,2.22,0,0,0,.09-.37c0-.13,0-.26.07-.4s.07-.39.09-.58a5.36,5.36,0,0,0,0-.55,3.23,3.23,0,0,0-.51-1.84,2.1,2.1,0,0,0-1.87-.76,3.71,3.71,0,0,0-2.79,1.17,7.68,7.68,0,0,0-1.68,2.56,4,4,0,0,0-.15.4c0,.13-.09.26-.13.4a7.39,7.39,0,0,0-.18.89,5.45,5.45,0,0,0-.06.9,3.24,3.24,0,0,0,.54,1.9,2.13,2.13,0,0,0,1.92.81,3.5,3.5,0,0,0,2.56-1.06A7.81,7.81,0,0,0,79.38,22c.08-.19.16-.39.23-.59A5.12,5.12,0,0,0,79.78,20.88ZM65.86,32.56l4-14.81c.1-.35.19-.71.27-1.07s.18-.72.28-1.1.16-.72.23-1.07.14-.72.2-1.07h3.8l-.56,2.32a8.47,8.47,0,0,1,2.66-1.92,7.18,7.18,0,0,1,3-.64,4.1,4.1,0,0,1,3.52,1.41,5.58,5.58,0,0,1,1,3.41,8,8,0,0,1-.1,1.28A11,11,0,0,1,84,20.64,13.14,13.14,0,0,1,81.08,26a7,7,0,0,1-5.59,2.42A5.35,5.35,0,0,1,73,27.85a3.08,3.08,0,0,1-1.54-1.73,2.68,2.68,0,0,1-.11.55c-.05.19-.09.39-.14.59s-.08.39-.13.57-.11.37-.17.53l-1.12,4.2Z"></path></svg> 