<?xml version="1.0" encoding="UTF-8"?>
<svg id="Capa_2" data-name="Capa 2" xmlns="http://www.w3.org/2000/svg" viewBox="0 0 82.61 82.61">
  <defs>
    <style>
      .cls-1 {
        fill: #016fd0;
      }

      .cls-1, .cls-2 {
        fill-rule: evenodd;
      }

      .cls-2 {
        fill: #fff;
      }
    </style>
  </defs>
  <g id="Capa_1-2" data-name="Capa 1">
    <g>
      <path class="cls-1" d="m0,0h82.61v82.61H0V0Z"/>
      <path class="cls-2" d="m16.02,57.55v-12.99h13.72l1.47,1.93,1.51-1.93h49.89v12.07s-1.28.87-2.8.87h-27.58l-1.65-2.07v2.07h-5.46v-3.49s-.73.5-2.34.5h-1.84v2.98h-8.26l-1.47-1.97-1.52,1.97s-13.68.05-13.68.05ZM0,34.83l3.08-7.21h5.37l1.75,4.04v-4.04h6.65l1.05,2.94,1.01-2.94h29.87v1.47s1.56-1.47,4.13-1.47l9.68.05,1.74,3.99v-4.04h5.55l1.51,2.29v-2.29h5.69v12.99h-5.65l-1.47-2.3v2.29h-8.17l-.83-2.07h-2.2l-.83,2.07h-5.55c-2.2,0-3.62-1.42-3.62-1.42v1.42h-8.35l-1.65-2.07v2.07H7.66l-.83-2.07h-2.2l-.83,2.07H0v-5.78h0Z"/>
      <path class="cls-1" d="m4.18,29.19L0,38.92h2.71l.78-1.93h4.5l.78,1.93h2.8l-4.18-9.73h-3.21Zm1.56,2.25l1.38,3.39h-2.75l1.38-3.4h0Zm6.1,7.48v-9.73l3.85.05,2.25,6.24,2.2-6.28h3.81v9.73h-2.43v-7.16l-2.57,7.16h-2.11l-2.62-7.16v7.16h-2.38Zm13.77,0v-9.73h7.94v2.2h-5.46v1.65h5.32v2.02h-5.32v1.74h5.46v2.11h-7.94Zm9.31-9.73v9.73h2.43v-3.44h1.01l2.89,3.44h2.98l-3.21-3.58c1.53-.14,2.7-1.45,2.66-2.99,0-2.07-1.61-3.16-3.4-3.16h-5.37Zm2.43,2.2h2.75c.69,0,1.15.5,1.15,1.01,0,.64-.64,1.01-1.1,1.01h-2.8v-2.02Zm9.87,7.53h-2.48v-9.73h2.48v9.73Zm5.87,0h-.55c-2.57,0-4.18-2.02-4.18-4.82s1.56-4.91,4.82-4.91h2.66v2.29h-2.8c-1.33,0-2.25,1.05-2.25,2.62,0,1.88,1.05,2.66,2.61,2.66h.64l-.96,2.16h0Zm5.28-9.73l-4.18,9.73h2.71l.78-1.93h4.5l.78,1.93h2.8l-4.18-9.73h-3.21Zm1.56,2.25l1.38,3.39h-2.75l1.38-3.4h0Zm6.06,7.48v-9.73h3.08l3.95,6.1v-6.1h2.43v9.73h-2.99l-4.04-6.29v6.29h-2.43Zm-48.28,16.98v-9.73h7.89v2.2h-5.46v1.65h5.32v2.07h-5.33v1.7h5.46v2.11h-7.89Zm38.78,0v-9.73h7.94v2.2h-5.46v1.65h5.32v2.07h-5.33v1.7h5.46v2.11h-7.94Zm-30.56,0l3.85-4.77-3.95-4.96h3.07l2.34,3.08,2.34-3.08h2.94l-3.9,4.87,3.9,4.86h-3.08l-2.3-2.98-2.2,2.98h-3.03Zm10.88-9.68v9.73h2.48v-3.07h2.57c2.16,0,3.81-1.15,3.81-3.4,0-1.84-1.29-3.26-3.49-3.26,0,0-5.37,0-5.37,0Zm2.48,2.16h2.71c.69,0,1.2.41,1.2,1.1,0,.64-.51,1.1-1.2,1.1h-2.66v-2.2s-.05,0-.05,0Zm7.43-2.2v9.73h2.43v-3.44h1.01l2.89,3.44h2.99l-3.21-3.58c1.53-.14,2.69-1.45,2.66-2.99,0-2.07-1.61-3.16-3.4-3.16,0,0-5.37,0-5.37,0Zm2.43,2.2h2.75c.69,0,1.15.5,1.15,1.01,0,.64-.64,1.01-1.1,1.01h-2.8v-2.02Zm16.43,7.53v-2.11h4.87c.73,0,1.01-.37,1.01-.83,0-.42-.32-.83-1.01-.83h-2.2c-1.93,0-2.98-1.15-2.98-2.89,0-1.56.96-3.08,3.81-3.08h4.73l-1.01,2.2h-4.08c-.78,0-1.01.41-1.01.78,0,.41.28.83.87.83h2.3c2.11,0,3.03,1.19,3.03,2.8,0,1.7-1.01,3.08-3.17,3.08,0,0-5.14.04-5.14.04Zm8.9,0v-2.11h4.64c.73,0,1.01-.37,1.01-.83,0-.42-.32-.83-1.01-.83h-1.97c-1.93,0-2.98-1.15-2.98-2.89,0-1.56.96-3.08,3.81-3.08h4.63l-1.01,2.2h-3.99c-.78,0-1.01.41-1.01.78,0,.41.28.83.87.83h2.11c2.11,0,3.03,1.19,3.03,2.8,0,1.7-1.01,3.08-3.17,3.08,0,0-4.96.04-4.96.04Z"/>
    </g>
  </g>
</svg>